<svg id="visual" viewBox="0 0 960 540" width="960" height="540" xmlns="http://www.w3.org/2000/svg" xmlns:xlink="http://www.w3.org/1999/xlink" version="1.1"><path d="M0 431L20 429.2C40 427.3 80 423.7 120 415.7C160 407.7 200 395.3 240 390.8C280 386.3 320 389.7 360 400.2C400 410.7 440 428.3 480 426.3C520 424.3 560 402.7 600 402.8C640 403 680 425 720 433.5C760 442 800 437 840 431.3C880 425.7 920 419.3 940 416.2L960 413L960 541L940 541C920 541 880 541 840 541C800 541 760 541 720 541C680 541 640 541 600 541C560 541 520 541 480 541C440 541 400 541 360 541C320 541 280 541 240 541C200 541 160 541 120 541C80 541 40 541 20 541L0 541Z" fill="#fa7268"></path><path d="M0 450L20 457C40 464 80 478 120 484.3C160 490.7 200 489.3 240 486C280 482.7 320 477.3 360 473.2C400 469 440 466 480 468C520 470 560 477 600 482C640 487 680 490 720 484.8C760 479.7 800 466.3 840 461C880 455.7 920 458.3 940 459.7L960 461L960 541L940 541C920 541 880 541 840 541C800 541 760 541 720 541C680 541 640 541 600 541C560 541 520 541 480 541C440 541 400 541 360 541C320 541 280 541 240 541C200 541 160 541 120 541C80 541 40 541 20 541L0 541Z" fill="#c62368"></path></svg>